<?xml version="1.0" encoding="utf-8"?>
<!-- Generator: Adobe Illustrator 23.0.3, SVG Export Plug-In . SVG Version: 6.00 Build 0)  -->
<svg version="1.1" id="Ebene_1" xmlns="http://www.w3.org/2000/svg" xmlns:xlink="http://www.w3.org/1999/xlink" x="0px" y="0px"
	 viewBox="0 0 898 562.7" style="enable-background:new 0 0 898 562.7;" xml:space="preserve">
<style type="text/css">
	.st0{fill:#FFFFFF;}
</style>
<g id="Gruppe_9" transform="translate(50 20.665)">
	<g id="Gruppe_6" transform="translate(13.769 65.872)">
		<path id="Pfad_13" class="st0" d="M136.4,310.2H34.9v53.9h99.5V383H34.9v71h101.5v18.9H14.6V291.3h121.8V310.2z"/>
		<path id="Pfad_14" class="st0" d="M339.8,474.7H314l-15.3-16.4c-15.9,11.7-35.2,18-54.9,17.8c-16.4,0-32.6-4.4-46.8-12.6
			c-15-8.4-27.4-20.8-35.8-35.9c-7.6-13.7-11.6-29.2-11.4-45c-0.1-15.7,3.8-31.1,11.3-44.8c24.8-45.9,82.2-63.1,128.1-38.2
			c30.7,16.6,49.8,48.7,49.6,83.6c0.2,11.4-1.9,22.7-6.1,33.3c-4.9,11.3-11.7,21.6-20,30.6L339.8,474.7z M267.4,399.9l31.1,32.7
			c6.4-6.8,11.6-14.7,15.2-23.3c3.2-8.4,4.8-17.4,4.6-26.4c0.5-20.2-7.4-39.7-21.7-53.9c-13.7-14.1-32.7-22-52.4-21.7
			c-27.4-0.1-52.5,15.1-65.3,39.3c-5.8,11.2-8.8,23.6-8.6,36.2c-0.5,20.4,7.8,40,22.8,53.7c13.5,13.2,31.6,20.7,50.5,20.6
			c14.7,0.1,29.1-4.4,41-13l-43.8-44.2H267.4z"/>
		<path id="Pfad_15" class="st0" d="M376.9,291.3v111.2c-0.2,7.3,0.3,14.5,1.3,21.7c0.8,4.7,2.4,9.2,4.8,13.3
			c3.7,5.9,9,10.7,15.3,13.8c16.9,9.2,37.7,7.4,52.8-4.5c5.3-4,9.3-9.6,11.5-15.9c2.4-9.3,3.4-18.8,3-28.4V291.3H486v116.8
			c0.2,8.3-0.7,16.6-2.7,24.7c-1.8,6.6-4.9,12.8-9.1,18.3c-6.3,8.2-14.6,14.7-24.1,18.9c-9.1,4.2-18.9,6.3-28.9,6.3
			c-14.1,0.1-27.9-4.2-39.5-12.4c-8.4-5.6-15-13.4-19.3-22.5c-4.2-10.6-6.2-21.9-5.9-33.3V291.3H376.9z"/>
		<path id="Pfad_16" class="st0" d="M545.2,291.3v181.6h-20.4V291.3H545.2z"/>
		<path id="Pfad_17" class="st0" d="M633.9,310.2v162.7h-20.3V310.2h-43.9v-18.9h108.4v18.9H633.9z"/>
		<path id="Pfad_18" class="st0" d="M747.9,394.8l-59.5-103.5h23.4l46.3,81l46.9-81h23.5l-60.4,103.5v78.1h-20.4L747.9,394.8z"/>
	</g>
	<g id="Gruppe_8">
		<path id="Pfad_19" class="st0" d="M503.5-20.7v342h-58.7v-342H503.5z"/>
		<path id="Pfad_20" class="st0" d="M834.3,82c-10.3-24.6-26.4-46.4-47-63.4c-31.8-26.2-72.5-39.3-122.1-39.3H558.9v342h105.9
			c25.1,0.6,50.1-3.2,73.8-11.3c32.6-12,60.5-34.1,79.6-63.2c19.7-28.6,30.1-62.5,29.8-97.2C848.1,126.4,843.4,103.4,834.3,82z
			 M781.3,200c-6.3,15.3-15.9,29-28.1,40.2c-11.2,10-24.6,17.4-39.1,21.6c-18.3,4.9-37.3,7.1-56.2,6.7h-46.2V32.2h46.2
			c29.1,0,52.6,4.1,70.5,12.3c18.4,8.6,33.8,22.6,44.3,40c12.4,19.7,18.9,42.5,18.7,65.7C791.4,167.3,788,184.3,781.3,200L781.3,200
			z"/>
		<g id="Gruppe_7">
			<rect id="Rechteck_30" x="-50" y="169.3" class="st0" width="38" height="38"/>
			<rect id="Rechteck_31" x="-12" y="207.3" class="st0" width="38" height="38"/>
			<rect id="Rechteck_32" x="-12" y="17.3" class="st0" width="38" height="38"/>
			<rect id="Rechteck_33" x="26" y="169.3" class="st0" width="38" height="38"/>
			<rect id="Rechteck_34" x="26" y="283.3" class="st0" width="38" height="38"/>
			<path id="Pfad_21" class="st0" d="M64,131.3v-38h-76v38H64z"/>
			<rect id="Rechteck_35" x="64" y="207.3" class="st0" width="38" height="38"/>
			<rect id="Rechteck_36" x="64" y="-20.7" class="st0" width="38" height="38"/>
			<rect id="Rechteck_37" x="102" y="169.3" class="st0" width="38" height="38"/>
			<rect id="Rechteck_38" x="102" y="245.3" class="st0" width="38" height="38"/>
			<rect id="Rechteck_39" x="102" y="55.3" class="st0" width="38" height="38"/>
			<rect id="Rechteck_40" x="140" y="207.3" class="st0" width="38" height="38"/>
			<rect id="Rechteck_41" x="140" y="93.3" class="st0" width="38" height="38"/>
			<rect id="Rechteck_42" x="178" y="131.3" class="st0" width="38" height="38"/>
			<rect id="Rechteck_43" x="216" y="169.3" class="st0" width="38" height="38"/>
			<path id="Pfad_22" class="st0" d="M375.4,140.6c14.5-20.3,22.2-44.6,22.2-69.5c0-41.7-33.3-91.8-100.1-91.8H140v38h152v76h-38
				v-38h-76v38h38v38h76v38h38v38h-76v38h-76v38h-38v38h154.8c69.5,0,114-50.1,114-102.9S375.4,140.6,375.4,140.6z"/>
		</g>
	</g>
</g>
</svg>
