<?xml version="1.0" encoding="utf-8"?>
<!-- Generator: Adobe Illustrator 23.0.3, SVG Export Plug-In . SVG Version: 6.00 Build 0)  -->
<svg version="1.1" id="Ebene_1" xmlns="http://www.w3.org/2000/svg" xmlns:xlink="http://www.w3.org/1999/xlink" x="0px" y="0px"
	 viewBox="0 0 24 24" style="enable-background:new 0 0 24 24;" xml:space="preserve">
<style type="text/css">
	.st0{fill:#333333;}
	.st1{fill:none;}
</style>
<g>
	<path id="Pfad_55" class="st0" d="M6.8,21.3H2.7V9h4.1V21.3z M4.8,7.3L4.8,7.3C3.5,7.3,2.4,6.3,2.4,5c0-1.3,1.1-2.3,2.4-2.3
		c1.3,0,2.3,1.1,2.3,2.4C7.1,6.3,6.1,7.3,4.8,7.3z M21.6,21.3h-4.1v-6.6c0-1.7-0.6-2.8-2.1-2.8c-0.9,0-1.8,0.6-2.1,1.5
		c-0.1,0.3-0.2,0.7-0.1,1v6.9H9.1c0,0,0.1-11.2,0-12.3h4.1v1.7c0.8-1.3,2.2-2.1,3.7-2c2.7,0,4.7,1.8,4.7,5.5L21.6,21.3z"/>
	<rect class="st1" width="24" height="24"/>
</g>
</svg>
