<?xml version="1.0" encoding="utf-8"?>
<!-- Generator: Adobe Illustrator 23.0.3, SVG Export Plug-In . SVG Version: 6.00 Build 0)  -->
<svg version="1.1" id="Ebene_1" xmlns="http://www.w3.org/2000/svg" xmlns:xlink="http://www.w3.org/1999/xlink" x="0px" y="0px"
	 viewBox="0 0 27.5 18" style="enable-background:new 0 0 27.5 18;" xml:space="preserve">
<style type="text/css">
	.st0{fill:#FFFFFF;}
</style>
<g id="Gruppe_148" transform="translate(-506.84 -457.992)">
	<g id="Shape_17" transform="translate(506.84 457.992)">
		<g id="Gruppe_147" transform="translate(0)">
			<path id="Pfad_93" class="st0" d="M27.5,2.3c0-0.6-0.2-1.1-0.6-1.5c0,0,0,0,0,0s0,0,0,0c-0.4-0.5-1-0.7-1.7-0.7H2.3
				C1.7,0,1.1,0.3,0.6,0.7c0,0,0,0,0,0s0,0,0,0C0.2,1.2,0,1.7,0,2.3v13.4c0,0.6,0.2,1.1,0.6,1.6c0,0,0,0,0,0c0,0,0,0,0,0
				c0.4,0.4,1,0.7,1.7,0.7h22.8c0.6,0,1.2-0.3,1.7-0.7l0,0c0,0,0,0,0,0c0.4-0.4,0.6-1,0.6-1.6L27.5,2.3L27.5,2.3z M18.5,8.3l7.9-6.6
				c0.1,0.2,0.1,0.4,0.1,0.6v13.4c0,0.2,0,0.3-0.1,0.5L18.5,8.3z M25.1,0.9c0.2,0,0.4,0,0.6,0.1l-12,9.9l-12-9.9
				C1.9,1,2.1,0.9,2.3,0.9L25.1,0.9z M1.1,16.2C1,16.1,1,15.9,1,15.7V2.3c0-0.2,0-0.4,0.1-0.6L9,8.3L1.1,16.2z M2.3,17.1
				c-0.2,0-0.4-0.1-0.6-0.1l8-8l3.7,3.1c0.2,0.1,0.4,0.1,0.6,0l3.7-3.1l8,8c-0.2,0.1-0.4,0.1-0.6,0.1L2.3,17.1z"/>
		</g>
	</g>
</g>
</svg>
